<?xml version="1.0" standalone="no"?>
<!DOCTYPE svg PUBLIC "-//W3C//DTD SVG 20010904//EN"
 "http://www.w3.org/TR/2001/REC-SVG-20010904/DTD/svg10.dtd">
<svg version="1.0" xmlns="http://www.w3.org/2000/svg"
 width="1080.000000pt" height="1080.000000pt" viewBox="0 0 1080.000000 1080.000000"
 preserveAspectRatio="xMidYMid meet">
<metadata>
Created by potrace 1.11, written by Peter Selinger 2001-2013
</metadata>
<g transform="translate(0.000000,1080.000000) scale(0.100000,-0.100000)"
fill="#000000" stroke="none">
<path d="M5128 10795 c-1 -1 -46 -6 -98 -9 -269 -18 -522 -53 -765 -106 -49
-11 -99 -22 -110 -24 -11 -2 -40 -9 -65 -16 -25 -7 -52 -13 -60 -15 -33 -7
-235 -67 -351 -106 -517 -172 -1048 -449 -1485 -774 -124 -92 -113 -84 -243
-191 -136 -111 -186 -158 -376 -348 -659 -660 -1121 -1450 -1375 -2349 -22
-77 -42 -150 -45 -161 -2 -12 -17 -82 -33 -156 -44 -199 -71 -367 -88 -535 -3
-33 -7 -71 -10 -85 -26 -162 -25 -822 1 -1037 2 -16 6 -57 9 -93 4 -36 8 -75
10 -85 4 -22 14 -89 21 -145 3 -19 7 -46 10 -60 3 -14 8 -41 11 -60 83 -490
269 -1041 512 -1510 255 -494 574 -932 967 -1326 233 -234 322 -313 545 -485
488 -376 1029 -662 1620 -855 98 -32 147 -47 325 -95 80 -21 271 -63 360 -79
33 -5 70 -12 81 -14 59 -12 203 -31 384 -52 117 -13 279 -19 525 -19 313 0
396 5 705 41 82 9 282 45 424 75 172 37 161 34 216 49 25 7 50 13 55 14 24 6
140 41 265 81 541 172 1082 452 1555 804 72 54 137 104 145 112 8 8 39 33 69
57 208 164 538 497 770 777 88 106 401 552 401 571 0 3 15 28 33 57 122 190
298 556 407 842 81 215 189 569 216 710 2 11 10 52 18 90 20 98 43 222 51 276
3 25 8 59 10 75 12 71 15 93 20 149 4 33 8 76 11 95 25 216 25 876 -1 1042 -2
13 -6 54 -10 92 -4 38 -8 79 -10 90 -2 12 -6 39 -10 61 -8 59 -44 277 -49 300
-147 699 -397 1309 -771 1880 -78 120 -226 328 -278 391 -9 11 -41 51 -73 89
-147 183 -461 505 -649 666 -707 608 -1563 1026 -2465 1204 -41 8 -85 17 -96
19 -12 2 -39 7 -60 11 -22 3 -50 8 -64 10 -14 2 -77 11 -140 19 -105 14 -156
20 -290 32 -55 6 -677 14 -682 9z m-329 -1234 c535 -421 948 -840 1200 -1220
115 -174 312 -561 415 -816 20 -49 41 -99 46 -110 44 -95 133 -379 199 -635
l9 -35 42 90 c58 125 63 137 103 250 93 259 146 555 142 798 -1 67 -5 142 -9
167 l-7 45 51 -65 c111 -143 330 -468 472 -705 179 -298 383 -693 506 -980
218 -510 362 -1001 427 -1460 3 -23 7 -52 10 -65 27 -142 28 -784 1 -950 -3
-14 -10 -59 -16 -100 -16 -105 -17 -110 -29 -160 -5 -25 -12 -57 -15 -72 -15
-87 -100 -356 -155 -493 -56 -137 -206 -436 -223 -443 -5 -2 -8 -8 -8 -14 0
-6 -30 -57 -67 -112 -206 -311 -443 -564 -723 -775 -52 -39 -99 -74 -105 -79
-99 -76 -410 -242 -578 -307 -106 -41 -274 -97 -331 -110 -151 -34 -249 -54
-286 -60 -87 -12 -95 -13 -155 -21 -33 -4 -168 -8 -300 -8 -217 -1 -300 3
-405 20 -19 2 -48 7 -65 9 -42 5 -97 15 -115 20 -8 2 -31 7 -50 10 -65 10
-224 54 -347 94 -256 85 -537 223 -751 368 -78 53 -165 115 -172 123 -3 3 -39
32 -80 65 -77 62 -292 271 -370 360 -64 73 -198 257 -264 360 -69 108 -203
377 -247 495 -47 127 -112 350 -103 350 3 0 0 8 -5 18 -5 10 -12 36 -15 58 -3
21 -10 62 -15 91 -21 109 -26 186 -26 438 0 231 5 354 19 435 4 25 11 72 22
153 3 23 9 65 15 93 5 28 12 64 15 80 4 24 25 115 50 217 2 9 6 27 9 40 18 82
101 334 160 487 76 195 118 286 278 607 79 159 156 320 171 358 66 165 144
411 162 510 3 17 9 48 14 70 13 56 23 159 24 232 l1 61 29 -16 c42 -24 216
-197 263 -262 173 -240 340 -707 369 -1037 4 -40 10 -73 14 -73 10 0 130 164
172 235 143 242 299 621 393 955 17 59 115 460 119 485 3 16 12 64 21 105 9
41 18 88 20 105 8 61 16 111 20 130 2 11 7 47 10 80 4 33 8 74 10 90 28 225
23 715 -10 936 -3 20 -8 54 -10 75 -17 134 -91 462 -120 528 -10 23 46 -14
174 -113z"/>
<path d="M5260 5539 c-109 -13 -165 -21 -171 -25 -3 -2 -21 -6 -40 -9 -136
-23 -387 -123 -534 -212 -146 -88 -354 -275 -463 -414 -64 -83 -172 -253 -172
-272 0 -8 -7 -20 -15 -27 -8 -7 -15 -16 -15 -21 0 -4 -13 -36 -29 -71 -45 -99
-103 -287 -108 -355 -9 -99 24 -149 107 -169 19 -4 737 -9 1595 -10 858 -1
1568 -2 1577 -3 10 -1 31 -13 48 -28 53 -49 45 -140 -16 -180 -24 -15 -143
-17 -1632 -18 -1021 -2 -1620 -6 -1642 -12 -141 -40 -251 -139 -296 -267 -20
-54 -24 -175 -9 -239 45 -193 204 -315 408 -315 73 0 177 27 207 53 8 7 35 23
60 35 69 35 119 30 221 -22 98 -51 175 -71 257 -67 86 4 122 17 277 98 47 24
112 19 170 -14 84 -48 98 -54 165 -71 117 -30 242 -8 365 65 78 46 140 48 212
4 178 -107 311 -110 506 -12 129 65 148 64 259 -10 55 -36 130 -61 186 -61 43
0 44 -1 37 -27 -13 -57 -75 -170 -120 -221 -72 -81 -192 -156 -285 -177 -57
-14 -253 -17 -922 -17 -728 -1 -861 2 -937 17 -112 22 -237 89 -317 170 -68
69 -100 78 -174 49 -50 -20 -78 -59 -86 -116 -10 -77 34 -142 166 -244 96 -74
235 -140 335 -159 91 -17 226 -20 1025 -19 791 0 882 2 945 17 323 80 555 290
655 597 37 112 44 152 44 240 -1 83 -5 104 -30 131 -35 39 -74 51 -172 55
-109 4 -178 22 -273 69 -37 19 -79 36 -93 39 -14 3 -30 8 -36 11 -12 8 -123 8
-159 0 -46 -9 -96 -28 -136 -52 -122 -73 -164 -74 -290 -10 -180 92 -293 91
-477 -6 -103 -54 -143 -54 -248 1 -98 52 -168 72 -247 72 -67 0 -167 -28 -213
-59 -96 -66 -184 -68 -296 -5 -77 43 -133 60 -209 63 -88 3 -196 -30 -290 -89
-103 -64 -217 -7 -202 102 6 45 19 63 61 86 28 15 169 16 1641 17 l1610 2 58
22 c108 42 206 140 248 249 17 43 22 77 22 137 -1 183 -103 332 -272 396 l-56
21 -1482 2 c-815 0 -1485 5 -1489 9 -21 20 -3 74 68 212 100 193 283 399 458
513 52 34 100 66 105 70 43 34 299 129 420 157 32 7 40 9 120 21 69 10 299 12
349 3 23 -4 64 -10 91 -13 48 -5 209 -48 250 -65 11 -5 38 -17 60 -26 204 -86
382 -219 527 -395 90 -108 80 -95 137 -177 60 -86 119 -110 198 -78 79 32 108
128 64 216 -34 67 -145 212 -240 311 -176 185 -347 304 -586 409 -31 13 -197
67 -225 73 -119 24 -184 35 -235 41 -81 10 -307 12 -375 4z"/>
<path d="M5726 5008 c-34 -12 -65 -74 -58 -116 9 -64 79 -111 137 -92 90 30
111 147 35 198 -35 24 -68 27 -114 10z"/>
<path d="M5393 4795 c-15 -7 -35 -20 -43 -30 -30 -36 -2 -157 40 -170 89 -26
146 2 163 83 8 34 -11 90 -36 107 -30 19 -89 24 -124 10z"/>
<path d="M6064 4795 c-44 -18 -60 -56 -55 -137 3 -68 130 -97 187 -43 29 27
36 104 14 145 -20 38 -96 56 -146 35z"/>
</g>
</svg>
